<?xml version="1.0" standalone="no"?>
<!DOCTYPE svg PUBLIC "-//W3C//DTD SVG 20010904//EN"
 "http://www.w3.org/TR/2001/REC-SVG-20010904/DTD/svg10.dtd">
<svg version="1.0" xmlns="http://www.w3.org/2000/svg"
 width="1300.000000pt" height="1300.000000pt" viewBox="0 0 1300.000000 1300.000000"
 preserveAspectRatio="xMidYMid meet">
<metadata>
Created by potrace 1.11, written by Peter Selinger 2001-2013
</metadata>
<g transform="translate(0.000000,1300.000000) scale(0.100000,-0.100000)"
fill="#000000" stroke="none">
<path d="M3317 11304 c-1 -1 -31 -4 -67 -7 -125 -12 -222 -52 -304 -128 -127
-116 -166 -304 -121 -569 21 -122 24 -137 35 -165 14 -37 14 -38 -24 -77 -44
-45 -50 -77 -43 -236 3 -94 12 -155 32 -232 33 -128 100 -277 127 -286 17 -5
19 -12 14 -47 -8 -54 -8 -144 0 -182 18 -83 112 -154 218 -164 38 -4 61 -11
62 -18 1 -7 2 -17 3 -23 0 -5 6 -10 12 -10 6 0 16 -6 23 -12 17 -18 245 -304
281 -353 17 -22 32 -42 35 -45 9 -9 66 -84 74 -98 5 -9 -9 -39 -40 -85 -87
-129 -146 -230 -216 -367 -38 -74 -72 -138 -76 -141 -4 -4 -34 -9 -67 -13 -33
-3 -82 -8 -110 -11 -27 -3 -66 -7 -85 -10 -19 -3 -52 -7 -72 -10 -21 -3 -53
-7 -70 -9 -18 -3 -55 -8 -83 -11 -27 -3 -75 -10 -105 -15 -30 -5 -75 -12 -100
-15 -25 -3 -67 -10 -95 -15 -27 -5 -68 -12 -90 -15 -22 -3 -47 -7 -55 -10 -8
-2 -33 -6 -55 -10 -22 -3 -78 -12 -125 -21 -47 -9 -96 -18 -110 -20 -14 -3
-54 -12 -90 -20 -36 -8 -76 -16 -90 -18 -36 -6 -326 -73 -385 -91 -27 -8 -122
-35 -210 -61 -806 -236 -1248 -565 -1247 -929 1 -39 6 -84 12 -100 6 -17 11
-32 12 -35 1 -38 73 -144 145 -216 40 -40 53 -60 48 -74 -20 -62 -22 -168 -4
-202 42 -78 174 -193 322 -280 103 -60 235 -110 272 -104 26 5 33 1 55 -31 37
-55 100 -113 143 -133 74 -34 192 -9 260 56 25 23 32 25 54 15 13 -6 29 -9 34
-5 15 9 910 -103 971 -122 10 -3 25 -18 34 -33 24 -41 111 -91 159 -92 69 -1
133 31 175 86 16 22 32 32 45 30 11 -2 40 -6 65 -9 25 -3 54 -8 65 -10 39 -7
101 -17 135 -21 94 -11 127 -17 137 -23 7 -4 32 -57 56 -117 75 -188 186 -398
305 -580 68 -103 221 -309 266 -357 14 -15 26 -30 26 -33 0 -10 -169 -175
-230 -225 -30 -25 -57 -47 -60 -50 -3 -3 -22 -18 -43 -33 -51 -39 -180 -187
-236 -272 -25 -39 -74 -126 -108 -195 -80 -161 -100 -236 -108 -421 -3 -49 -9
-97 -14 -107 -6 -11 -6 -24 1 -36 13 -24 14 -122 0 -138 -18 -23 -110 -320
-131 -425 -26 -128 -27 -214 -1 -270 10 -23 22 -64 26 -90 5 -36 16 -57 43
-84 90 -91 220 -133 293 -95 27 14 29 13 87 -44 57 -56 174 -124 229 -135 13
-2 31 -6 40 -9 105 -31 300 -21 467 24 320 86 668 267 1095 569 58 40 107 78
108 82 2 5 8 9 13 9 5 0 44 27 87 60 42 33 82 63 87 67 24 19 161 128 171 138
7 5 29 24 49 40 21 17 43 35 49 40 6 6 38 32 71 60 33 27 62 52 65 55 3 3 23
20 45 39 57 48 167 146 238 213 l62 57 210 1 c115 0 230 2 255 4 60 5 239 25
275 32 10 2 37 6 60 10 22 3 60 10 85 16 25 5 56 12 70 14 57 11 231 57 320
86 247 79 532 210 760 353 l135 83 27 -55 c15 -31 36 -65 45 -76 53 -58 168
-79 260 -48 51 17 53 17 59 -1 3 -10 13 -18 22 -17 22 4 196 -86 465 -240 20
-11 54 -31 75 -42 201 -114 335 -195 337 -203 2 -6 6 -22 9 -36 10 -45 67
-120 108 -141 51 -26 122 -23 185 8 43 22 57 23 130 18 74 -5 84 -4 103 15 11
11 23 20 26 20 17 0 63 43 66 63 2 16 10 22 28 23 94 5 191 31 249 66 82 50
182 188 185 257 1 16 4 27 9 24 4 -2 8 4 8 14 1 10 3 29 6 43 18 106 6 299
-26 408 -5 18 -10 35 -10 37 1 18 -15 72 -23 83 -6 6 -8 12 -5 12 5 0 -32 120
-50 160 -3 8 -7 17 -8 20 -9 34 -18 49 -27 44 -7 -5 -8 -2 -4 5 5 7 2 27 -5
44 -45 114 -183 392 -259 522 -29 50 -64 110 -78 135 -14 25 -38 64 -53 87
-16 23 -29 45 -29 48 0 4 -10 21 -22 38 -13 18 -23 35 -23 38 0 4 -32 56 -71
116 l-71 110 31 13 c37 17 52 15 87 -10 35 -25 140 -60 179 -60 35 0 105 29
136 57 33 30 72 86 79 116 6 21 12 26 26 22 10 -3 29 1 42 10 19 12 52 24 137
50 3 1 12 4 20 7 30 11 131 41 458 134 l333 95 28 -21 c44 -31 137 -44 185
-27 65 24 100 63 130 147 l21 61 90 37 c50 19 91 39 93 44 2 4 11 8 19 8 18 0
135 60 145 75 4 5 8 7 8 3 0 -8 38 12 133 69 33 20 54 39 51 45 -4 7 -2 8 4 4
18 -11 117 67 209 163 66 71 111 145 129 216 16 61 24 125 15 125 -3 0 -6 14
-5 32 1 42 -16 108 -28 108 -5 0 -7 4 -4 9 5 7 -10 41 -52 117 -40 73 -296
295 -322 279 -6 -4 -9 -2 -8 4 2 6 -15 21 -37 34 -22 12 -42 24 -45 27 -12 12
-172 90 -185 90 -7 0 -15 4 -17 8 -2 4 -41 23 -88 41 -47 18 -98 39 -115 46
-16 7 -93 34 -170 60 -77 25 -147 49 -155 52 -8 3 -19 7 -25 8 -64 16 -206 55
-226 63 -15 6 -29 8 -32 6 -3 -3 -14 -1 -25 5 -10 5 -30 12 -43 15 -13 2 -46
10 -74 16 -27 6 -59 13 -70 16 -11 2 -70 15 -131 29 -62 13 -128 27 -149 31
-21 3 -47 8 -59 10 -38 8 -170 33 -201 38 -16 3 -86 15 -155 26 -69 12 -143
24 -165 26 -22 3 -63 9 -92 15 l-52 10 32 57 c87 158 149 279 144 285 -1 1 7
16 19 32 17 26 87 170 137 285 9 19 27 61 41 93 14 32 26 60 26 63 0 3 9 24
19 47 66 145 190 556 205 677 5 40 15 104 22 138 4 17 1 22 -8 16 -10 -6 -11
-5 -1 8 23 27 18 235 -8 358 -52 243 -212 410 -437 455 -38 8 -213 9 -239 1
-10 -2 -38 -7 -63 -10 -25 -3 -59 -10 -77 -15 -26 -8 -35 -5 -54 12 -14 13
-38 22 -63 23 -95 6 -322 -23 -481 -61 -11 -2 -42 -6 -70 -9 -197 -18 -283
-33 -409 -73 -44 -14 -104 -36 -132 -49 -29 -13 -60 -24 -68 -24 -9 0 -16 -4
-16 -8 0 -5 -18 -14 -40 -21 -22 -6 -40 -16 -40 -21 0 -4 -19 -15 -42 -23 -24
-8 -42 -19 -41 -25 2 -6 -4 -9 -12 -6 -9 4 -18 -2 -23 -16 -4 -12 -12 -22 -17
-23 -27 -6 -162 -155 -227 -252 -15 -22 -37 -46 -48 -53 -11 -7 -20 -20 -20
-29 0 -23 -47 -101 -68 -112 -12 -6 -39 1 -97 29 -229 108 -415 176 -651 236
-84 21 -278 59 -349 69 -11 1 -36 5 -55 9 -70 12 -96 16 -155 22 -33 3 -71 7
-85 10 -31 5 -332 5 -380 0 -19 -3 -64 -7 -100 -11 -36 -4 -74 -9 -85 -11 -11
-2 -38 -6 -60 -9 -22 -3 -51 -7 -65 -10 -14 -3 -43 -7 -65 -10 -46 -6 -84 -12
-140 -25 -22 -5 -45 -10 -51 -10 -9 0 -58 36 -155 114 -80 65 -150 116 -159
116 -5 0 -10 3 -10 8 0 8 -127 106 -145 112 -5 2 -14 9 -20 15 -13 17 -221
165 -230 165 -5 0 -13 6 -19 13 -23 28 -422 283 -581 372 -118 66 -208 115
-211 115 -3 0 -37 16 -77 36 -263 130 -534 216 -734 232 -52 4 -95 7 -96 6z
m8 -380 c84 -15 207 -50 290 -84 104 -42 139 -56 195 -82 114 -52 263 -130
345 -180 17 -10 37 -21 45 -25 49 -23 344 -210 525 -333 97 -66 310 -216 369
-262 28 -20 54 -34 59 -31 6 3 7 2 4 -4 -3 -5 14 -25 38 -43 25 -19 44 -35 42
-36 -1 -1 -38 -16 -82 -34 -199 -79 -489 -242 -684 -385 l-104 -76 -40 73
c-54 97 -165 245 -217 288 -24 19 -81 61 -128 92 -46 32 -90 64 -96 73 -6 8
-21 17 -32 19 -38 7 -103 45 -114 67 -43 79 -335 377 -420 428 -22 12 -46 37
-54 55 -13 28 -57 157 -62 181 -1 6 -10 41 -18 78 -19 78 -31 200 -22 223 5
13 17 15 69 10 34 -4 76 -9 92 -12z m7056 -781 c0 -4 2 -17 5 -28 6 -30 6
-195 -1 -240 -7 -47 -23 -139 -30 -175 -3 -14 -7 -36 -10 -50 -3 -14 -10 -41
-15 -60 -6 -19 -13 -44 -15 -55 -16 -74 -141 -421 -199 -550 -8 -16 -24 -52
-36 -80 -13 -27 -56 -120 -97 -205 -41 -85 -74 -157 -75 -160 0 -3 -8 -16 -17
-30 -33 -48 -61 -111 -55 -122 4 -7 2 -8 -4 -4 -7 4 -12 3 -12 -1 0 -5 -15
-35 -34 -66 -19 -31 -32 -57 -30 -57 3 0 -4 -13 -15 -29 -12 -16 -21 -31 -21
-34 0 -8 -72 -128 -75 -125 -1 2 -32 61 -69 131 -148 283 -276 469 -496 722
-19 22 -83 88 -142 148 -59 59 -103 107 -98 107 6 0 20 12 33 26 30 35 541
403 762 549 24 16 47 20 115 20 90 0 135 16 172 59 26 30 47 106 44 160 -1 32
3 51 13 60 15 13 151 61 203 72 13 2 39 8 58 12 50 12 140 15 141 5z m-7245
-2700 c-14 -59 -28 -124 -31 -143 -3 -19 -8 -42 -10 -50 -2 -8 -7 -35 -10 -60
-3 -25 -8 -52 -10 -60 -2 -8 -7 -43 -10 -77 -4 -35 -9 -75 -11 -90 -9 -52 -12
-518 -4 -598 16 -170 22 -213 36 -289 19 -103 20 -99 -26 -93 -29 3 -60 20
-117 64 -99 76 -185 134 -243 163 -25 13 -75 46 -112 74 -144 110 -187 138
-303 195 -133 66 -235 100 -384 131 -94 19 -275 28 -311 16 -8 -3 -32 -7 -52
-10 -21 -3 -59 -11 -85 -16 -26 -6 -57 -9 -69 -6 -12 3 -27 0 -33 -8 -23 -27
-100 -38 -196 -26 -49 5 -171 13 -270 16 -177 6 -181 7 -230 36 -75 45 -185
130 -185 144 0 47 264 212 485 303 321 133 831 274 1305 361 30 6 66 12 80 15
43 9 253 46 283 50 29 4 285 43 327 50 14 2 48 7 75 10 83 11 109 16 114 21 3
2 9 0 14 -5 6 -6 -1 -51 -17 -118z m6893 93 c3 -2 30 -7 60 -10 30 -4 98 -14
150 -22 53 -9 107 -17 121 -19 23 -3 422 -76 495 -90 17 -3 59 -13 95 -21 36
-8 85 -19 110 -24 257 -52 639 -164 895 -261 192 -74 432 -208 533 -298 l33
-29 -23 -24 c-30 -30 -93 -78 -143 -108 -22 -13 -42 -27 -45 -30 -3 -3 -24
-14 -47 -24 -24 -11 -43 -24 -43 -29 0 -6 -3 -7 -6 -4 -4 4 -23 -2 -43 -13
-20 -11 -61 -30 -92 -43 l-55 -24 -110 28 c-60 16 -158 35 -219 44 -165 24
-220 34 -335 62 -91 23 -131 27 -290 29 -102 2 -207 -1 -235 -6 -27 -5 -66
-11 -85 -14 -66 -9 -195 -47 -260 -78 -36 -16 -107 -59 -157 -95 -51 -35 -93
-61 -93 -58 0 3 -9 1 -20 -5 -11 -6 -20 -16 -20 -23 0 -20 -80 -76 -125 -87
-22 -6 -64 -19 -93 -29 l-53 -19 5 36 c32 219 23 679 -19 917 -26 146 -39 208
-51 258 -14 56 -14 60 7 93 l22 35 65 -6 c36 -3 68 -8 71 -9z m935 -54 c3 -5
-1 -9 -9 -9 -8 0 -12 4 -9 9 3 4 7 8 9 8 2 0 6 -4 9 -8z m1526 -878 c0 -8 -19
-13 -24 -6 -3 5 1 9 9 9 8 0 15 -2 15 -3z m-2757 -1464 c12 -19 25 -39 30 -45
4 -5 41 -62 82 -125 227 -352 448 -761 530 -981 8 -21 22 -58 31 -81 50 -132
91 -311 94 -408 2 -77 2 -79 -17 -75 -10 2 -32 4 -49 4 -27 1 -37 11 -90 89
-32 48 -73 103 -90 122 -17 19 -64 89 -104 155 -84 138 -109 172 -197 272
-140 159 -435 351 -578 377 -14 3 -33 7 -43 10 -9 3 -35 7 -57 11 -81 11 -80
9 -16 94 60 78 201 286 201 295 0 3 15 30 34 59 32 50 54 90 112 210 14 28 32
66 41 84 l17 32 23 -32 c14 -18 34 -48 46 -67z m-5149 -1377 c72 -47 168 -111
213 -141 50 -33 86 -51 94 -47 8 5 10 4 5 -3 -7 -11 149 -94 269 -144 85 -35
255 -90 379 -121 l130 -33 -94 -80 c-52 -43 -105 -89 -118 -101 -12 -13 -27
-23 -32 -23 -4 0 -10 -3 -12 -7 -3 -8 -209 -173 -283 -228 -22 -16 -42 -32
-45 -35 -3 -3 -18 -14 -34 -25 -16 -11 -43 -30 -60 -43 -35 -25 -68 -48 -176
-123 -41 -28 -76 -56 -78 -60 -2 -5 -8 -9 -13 -9 -5 0 -46 -23 -92 -52 -393
-246 -757 -397 -948 -394 -41 1 -43 2 -47 35 -3 28 3 40 36 75 69 72 122 156
122 193 0 18 3 32 8 31 13 -3 116 49 159 81 86 63 109 180 57 291 -20 44 -23
56 -12 65 7 5 14 21 14 35 2 23 77 241 109 315 7 17 65 160 128 320 112 282
116 289 148 301 19 7 36 13 38 13 2 1 62 -38 135 -86z m391 -223 c3 -5 -4 -6
-15 -3 -11 3 -22 9 -25 13 -3 5 4 6 15 3 11 -3 22 -9 25 -13z m60 -38 c-3 -3
-11 0 -18 7 -9 10 -8 11 6 5 10 -3 15 -9 12 -12z m65 -22 c19 -11 31 -19 25
-19 -5 0 -26 8 -45 19 -19 11 -30 19 -25 19 6 0 26 -8 45 -19z m80 -35 c14 -8
21 -14 15 -14 -5 0 -21 6 -35 14 -14 8 -20 14 -15 14 6 0 21 -6 35 -14z"/>
</g>
</svg>
